<svg viewBox="0 0 128 128" fill="none" xmlns="http://www.w3.org/2000/svg">
  <path fill-rule="evenodd" clip-rule="evenodd" d="M22.5684 20.1721L15.5585 18.355L15.408 18.9358L22.5684 20.7919V32.1386L11.0552 29.984L10.9448 30.5738L22.5684 32.749V68.3493L15.3041 73.7594L15.6625 74.2406L22.5684 69.0975V79.9574L20.8094 80.1372L18.2775 78.2207C18.0573 78.0541 17.7437 78.0975 17.5771 78.3177C17.4104 78.5378 17.4538 78.8514 17.674 79.0181L19.3496 80.2864L7.4492 81.5025C7.17449 81.5306 6.97455 81.7761 7.00263 82.0508C7.0307 82.3255 7.27616 82.5254 7.55087 82.4974L20.5197 81.172L21.8012 82.142L13.9661 83.0323L14.0338 83.6284L22.4949 82.667L22.5684 82.7226V86H23.1684V83.1768L27.6358 86.5581L13.9275 88.5659C13.6543 88.6059 13.4652 88.8598 13.5053 89.133C13.5453 89.4063 13.7992 89.5953 14.0724 89.5553L28.7545 87.4049L38.1331 94.5035L21.3975 98.0106C21.1272 98.0672 20.954 98.3322 21.0107 98.6025C21.0673 98.8728 21.3323 99.046 21.6026 98.9893L39.1903 95.3037L52.0441 105.033L37.8528 109.406C37.5889 109.487 37.4409 109.767 37.5222 110.031C37.6035 110.295 37.8834 110.443 38.1473 110.361L53.0266 105.776L65.7395 115.399C65.9597 115.565 66.2733 115.522 66.4399 115.302C66.6066 115.082 66.5632 114.768 66.343 114.601L54.2041 105.413L73.587 99.4405L89.1349 106.72L71.3712 114.542C71.1185 114.654 71.0038 114.949 71.1151 115.201C71.2264 115.454 71.5215 115.569 71.7742 115.458L90.3375 107.283L94.288 109.132C94.5381 109.249 94.8358 109.142 94.9529 108.892C95.07 108.641 94.9621 108.344 94.712 108.227L91.5528 106.748L106.972 99.9576C107.225 99.8463 107.339 99.5512 107.228 99.2985C107.117 99.0458 106.821 98.9311 106.569 99.0424L90.3502 106.185L75.0092 99.0022L91.813 93.824L107.006 98.65C107.269 98.7336 107.55 98.588 107.634 98.3248C107.717 98.0617 107.572 97.7805 107.309 97.6969L93.4896 93.3074L111.214 87.8455L115.897 88.8314C116.167 88.8882 116.432 88.7153 116.489 88.4451C116.546 88.1749 116.373 87.9097 116.103 87.8528L113.184 87.2383L118.897 85.4778C119.161 85.3965 119.309 85.1166 119.228 84.8527C119.146 84.5888 118.867 84.4408 118.603 84.5222L111.167 86.8136L95.4722 83.5095L111.305 80.1915L120.215 81.4643C120.488 81.5033 120.741 81.3134 120.78 81.04C120.819 80.7666 120.629 80.5134 120.356 80.4743L114.172 79.5909L118.102 78.7672C118.373 78.7105 118.546 78.4455 118.489 78.1753C118.433 77.905 118.168 77.7318 117.897 77.7884L111.273 79.1767L97.9394 77.2719L102.072 76.6666C102.346 76.6266 102.535 76.3727 102.495 76.0994C102.455 75.8262 102.201 75.6371 101.927 75.6772L94.4461 76.7729L88.6413 75.9436C88.6175 75.9403 88.5939 75.9386 88.5706 75.9386V58.4978L107 57.48V47.7554L100.5 46.5V57L79.4999 58.3317V78.6194L88.5706 77.3615V76.9437L90.9546 77.2843L76.1807 79.4481L70.6681 78.2876V77.2861L78.9453 78.8217L79.0547 78.2317L70.6681 76.6759V33.0714L79.1169 29.4958L78.8831 28.9432L70.6681 32.4199V27.5H70.0681V32.485L23.1684 20.3276V13H22.5684V20.1721ZM67.292 77.5768L70.0681 78.1612V77.2614L67.292 77.5768ZM64.4206 77.9031C64.4882 77.9748 64.5775 78.0273 64.6812 78.0491L70.0681 79.1832V80.3434L58.1653 82.0867L50.1128 79.5288L64.4206 77.9031ZM47.8326 79.7879L36.6767 81.0556L43.4747 84.2383L55.9045 82.4178L48.0449 79.9212C47.961 79.8945 47.889 79.8478 47.8326 79.7879ZM34.8451 81.2637L23.9356 82.5033L29.0241 86.3548L41.6783 84.5014L34.9968 81.3733C34.938 81.3457 34.8871 81.3082 34.8451 81.2637ZM21.9795 81.0228L22.5684 81.4685V80.9626L21.9795 81.0228ZM73.3181 79.8674L70.6681 80.2555V79.3095L73.3181 79.8674ZM60.3429 82.7784L70.0681 81.354V82.3227H70.6681V81.2662L76.1491 80.4634L90.6074 83.5072L73.755 87.0387L60.3429 82.7784ZM70.0681 43.1074L34.9268 70.6546L70.0681 68.949V43.1074ZM23.1684 67.9025L60.771 39.8983L23.1684 32.8613V67.9025ZM94.4479 77.7833L79.0118 80.0441L93.04 82.9974L108.406 79.7774L94.4479 77.7833ZM71.7649 87.4558L58.0822 83.1095L45.119 85.0081L56.9694 90.5563L71.7649 87.4558ZM58.4769 91.2621L73.7029 88.0714L90.1409 93.2929L73.6614 98.3712L58.4769 91.2621ZM55.3402 90.8977L43.3226 85.2712L30.1429 87.2016L39.4308 94.2316L55.3402 90.8977ZM40.488 95.0318L56.8477 91.6035L72.2391 98.8094L53.2216 104.67L40.488 95.0318ZM91.8175 92.7762L75.693 87.6543L93.0395 84.0193L109.197 87.4207L91.8175 92.7762Z" fill="black"/>
  <path d="M79.4999 39.84L103.5 32.8726V18.8508L112.438 23.5446V36.0924L88.5706 41.8085V48.4785L79.4999 49.9829V39.84Z" fill="black"/>
</svg>
